<svg height="512" viewBox="0 0 64 64" width="512" xmlns="http://www.w3.org/2000/svg" xmlns:xlink="http://www.w3.org/1999/xlink"><linearGradient id="New_Gradient_Swatch_3" gradientUnits="userSpaceOnUse" x1="32" x2="32" y1="66.32" y2=".413"><stop offset="0" stop-color="#80489E"/><stop offset="1" stop-color="#d585ff"/></linearGradient><linearGradient id="New_Gradient_Swatch_3-2" x1="58.114" x2="58.114" xlink:href="#New_Gradient_Swatch_3" y1="66.32" y2=".413"/><linearGradient id="New_Gradient_Swatch_3-3" x1="55.457" x2="55.457" xlink:href="#New_Gradient_Swatch_3" y1="66.32" y2=".413"/><linearGradient id="New_Gradient_Swatch_3-4" x1="59.08" x2="59.08" xlink:href="#New_Gradient_Swatch_3" y1="66.32" y2=".413"/><g id="Email_maketing" data-name="Email maketing"><path d="m55.538 21.975-4.838-18.069a2 2 0 0 0 -2.45-1.415l-2.722.73a1.982 1.982 0 0 0 -.645.3l-5.858 4.189-5.06-4.336a3.015 3.015 0 0 0 -3.928 0l-27 23.27a3 3 0 0 0 -1.037 2.276v30.08a3 3 0 0 0 3 3h54a3 3 0 0 0 3-3v-30.08a3 3 0 0 0 -1.038-2.278zm4.441 37.131-18.252-14.606 18.273-14.623v29.123a.946.946 0 0 1 -.021.106zm-55.979-.106v-29.124l18.278 14.624-18.257 14.606a.9.9 0 0 1 -.021-.106zm27.372-19.217a1.017 1.017 0 0 1 1.253 0l25.269 20.217h-51.789zm17.393-35.36 5.176 19.319-1.932.517-5.176-19.318zm-17.765 10.977 2.07 7.728-5.8 1.553a4 4 0 0 1 -2.07-7.733zm1.622 9.918 1.812 6.762a1 1 0 0 1 -.707 1.224 1 1 0 0 1 -1.224-.707l-1.812-6.761zm2.46-2.412-2.229-8.32 12.163-8.7 4.947 18.463zm-3.737-18.02a1 1 0 0 1 1.314 0l4.69 4.019-6.078 4.344-6.35 1.7a6.165 6.165 0 0 0 -4.595 6.887 6 6 0 0 0 7.466 4.767l.966-.258 1.785 6.663a3.137 3.137 0 0 0 .972 1.6 3 3 0 0 0 2.728.615 3 3 0 0 0 2.057-1.901 3.143 3.143 0 0 0 .035-1.869l-1.765-6.592 16.454 1.6a1.98 1.98 0 0 0 .711-.058l2.724-.73a1.986 1.986 0 0 0 1.217-.941l3.639 3.131-19.188 15.359-6.255-5.005a3 3 0 0 0 -3.747 0l-6.247 5-19.194-15.354z" fill="url(#New_Gradient_Swatch_3)"/><path d="m55.216 13.047a1 1 0 0 0 .966.742.972.972 0 0 0 .259-.035l3.864-1.035a1 1 0 1 0 -.518-1.932l-3.864 1.036a1 1 0 0 0 -.707 1.224z" fill="url(#New_Gradient_Swatch_3-2)"/><path d="m54.042 8.15a1 1 0 0 0 .708-.293l2.828-2.828a1 1 0 1 0 -1.414-1.414l-2.829 2.828a1 1 0 0 0 .707 1.707z" fill="url(#New_Gradient_Swatch_3-3)"/><path d="m56.182 18.482a1 1 0 0 0 .707 1.225l3.864 1.035a.972.972 0 0 0 .259.035 1 1 0 0 0 .259-1.966l-3.864-1.036a1 1 0 0 0 -1.225.707z" fill="url(#New_Gradient_Swatch_3-4)"/></g></svg>