<?xml version="1.0" encoding="iso-8859-1"?>
<!-- Generator: Adobe Illustrator 19.0.0, SVG Export Plug-In . SVG Version: 6.00 Build 0)  -->
<svg version="1.1" id="Capa_1" xmlns="http://www.w3.org/2000/svg" xmlns:xlink="http://www.w3.org/1999/xlink" x="0px" y="0px"
	 viewBox="0 0 512 512" style="enable-background:new 0 0 512 512;" xml:space="preserve">
<linearGradient id="SVGID_1_" gradientUnits="userSpaceOnUse" x1="0" y1="258" x2="512" y2="258" gradientTransform="matrix(1 0 0 -1 0 514)">
	<stop  offset="0" style="stop-color:#d585ff"/>
	<stop  offset="0.021" style="stop-color:#a863cf"/>
	<stop  offset="0.293" style="stop-color:#a65ad1"/>
	<stop  offset="0.554" style="stop-color:#9b55c2"/>
	<stop  offset="0.796" style="stop-color:#9050b3"/>
	<stop  offset="1" style="stop-color:#80489E"/>
</linearGradient>
<path style="fill:url(#SVGID_1_);" d="M472,332V80c0-22.056-17.944-40-40-40H80c-22.056,0-40,17.944-40,40v352
	c0,22.056,17.944,40,40,40h207V298h-45c-11.046,0-20-8.954-20-20s8.954-20,20-20h45v-55c0-44.112,35.888-80,80-80h10
	c11.046,0,20,8.954,20,20s-8.954,20-20,20h-10c-22.056,0-40,17.944-40,40v55h45c11.046,0,20,8.954,20,20s-8.954,20-20,20h-45v174
	h105c22.056,0,40-17.944,40-40c0-11.046,8.954-20,20-20s20,8.954,20,20c0,44.112-35.888,80-80,80H80c-44.112,0-80-35.888-80-80V80
	C0,35.888,35.888,0,80,0h352c44.112,0,80,35.888,80,80v252c0,11.046-8.954,20-20,20S472,343.046,472,332z"/>
<g>
</g>
<g>
</g>
<g>
</g>
<g>
</g>
<g>
</g>
<g>
</g>
<g>
</g>
<g>
</g>
<g>
</g>
<g>
</g>
<g>
</g>
<g>
</g>
<g>
</g>
<g>
</g>
<g>
</g>
</svg>
