<?xml version="1.0" encoding="UTF-8"?><svg xmlns="http://www.w3.org/2000/svg" xmlns:xlink="http://www.w3.org/1999/xlink" viewBox="0 0 50 50" version="1.1"><path d="M25 1C11.758 1 1 11.758 1 25s10.758 24 24 24 24-10.758 24-24S38.242 1 25 1zm0 2c12.16 0 22 9.84 22 22s-9.84 22-22 22S3 37.16 3 25 12.84 3 25 3zm-1.656 3.844l-.782.312L8.47 12.47l-1.156.437L8 13.937l3 4.563v.25l-.594.438-5 3.75.938.812L11 27.875v7.688l.469.28 11 7 .437.282 16.5-7.219.594-.25v-7.031l1.438-.719.968-.5-.562-.906L39 21.75V21l3.719-3.969.906-.937-1.156-.625-8.938-4.781-.468-.25-.47.25-1 .53-5.218-2.155-.344-.126-.375.126-.875.312-1-1.781zm-.907 2.468l.438.782-3.219 1.187-.656.25v1.906l-.469-.28-.437-.282-.438.188-6 2.312-.25.094-1.031-1.563zm3.532 1.75L31 13.156v2.594l-4.906 2.125L21 14.687v-1.78zm7.125 1.626l7.312 3.937-1.406 1.5v-.656l-.594-.282-5-2.125-.406-.156V12.75zm-15.188 2.406l5.125 3.219-4.937 1.937-4.969-3.313zm15.094 2l2.406 1.031L31 20.25l-2.438-1.281zm-20 2.125l4 2.687v1.344l-4-3zm24 .343v1.782l-5 2.343V21.97zm-12 .125v2.657l-5.844 2.5-.156-.125V22.03zm2 .72L30 22v2.031l-3-1.625zm-16 .843l8.906 6.688-3.75 1.875-7.562-6.75zm26.625 2.031l1.969 3.282-12.219 6.125-2.188-3.594zm-11.688.813l2.407 1.312-5.219 2.438-2.156-1.625zm-4.25 5.187L22 29.5v10.688l-9-5.72v-4.812l2.344 2.094.5.438.594-.282zM38 29.625v4.719l-14 6.125v-9.563l2.156 3.594.469.813z" id="surface1"/><metadata><rdf:RDF xmlns:rdf="http://www.w3.org/1999/02/22-rdf-syntax-ns#" xmlns:rdfs="http://www.w3.org/2000/01/rdf-schema#" xmlns:dc="http://purl.org/dc/elements/1.1/"><rdf:Description about="https://iconscout.com/legal#licenses" dc:title="cydia" dc:description="cydia" dc:publisher="Iconscout" dc:date="2017-12-09" dc:format="image/svg+xml" dc:language="en"><dc:creator><rdf:Bag><rdf:li>Icons8</rdf:li></rdf:Bag></dc:creator></rdf:Description></rdf:RDF></metadata></svg>