<?xml version="1.0" encoding="utf-8"?>
<!-- Svg Vector Icons : http://www.onlinewebfonts.com/icon -->
<!DOCTYPE svg PUBLIC "-//W3C//DTD SVG 1.1//EN" "http://www.w3.org/Graphics/SVG/1.1/DTD/svg11.dtd">
<svg version="1.1" xmlns="http://www.w3.org/2000/svg" xmlns:xlink="http://www.w3.org/1999/xlink" x="0px" y="0px" viewBox="0 0 1000 1000" enable-background="new 0 0 1000 1000" xml:space="preserve">
<metadata> Svg Vector Icons : http://www.onlinewebfonts.com/icon </metadata>
<g><g transform="translate(0.000000,511.000000) scale(0.100000,-0.100000)"><path d="M4413.8,4982.8c-1471.5-178.1-2792-1016.5-3576.2-2273.1C26.3,1408.5-126.6-256.6,432.9-1675.8C1102.9-3370,2630.5-4545.3,4435.1-4756.4c1322.4-154.9,2679.7,247.8,3702,1099.8c1504.4,1254.7,2112.4,3262.5,1564.5,5161.9c-240.1,836.5-759,1663.2-1409.6,2242.1c-780.3,699-1701.9,1115.3-2726.2,1235.3C5269.6,5017.6,4704.2,5017.6,4413.8,4982.8z M5422.5,4003.1c1336-145.2,2501.6-966.2,3094.1-2176.3c791.9-1618.7,371.8-3564.6-1020.4-4724.4C6109.9-4055.4,4104-4100,2642.2-3009.9c-199.4,149.1-538.3,480.2-700.9,683.5c-1138.5,1428.9-1138.5,3452.3,0,4879.3c151,187.8,472.4,507.3,658.3,652.5c546,426,1266.3,720.3,1955.6,797.7C4768.1,4026.3,5205.7,4028.2,5422.5,4003.1z"/><path d="M4723.6,3079.5c-27.1-31-32.9-83.3-32.9-336.9v-302l-135.5-31c-664.1-149.1-1063-666.1-1020.4-1318.6c21.3-309.8,118.1-540.2,311.7-741.6c222.7-232.3,493.7-379.5,1008.8-546C5256-326.3,5461.3-427,5591-552.9c286.6-280.8,185.9-739.6-195.5-881c-383.4-145.2-842.3-71.6-1053.3,166.5c-87.1,98.7-127.8,214.9-147.2,410.5c-7.7,69.7-21.3,139.4-32.9,152.9c-13.6,17.4-114.2,23.2-383.4,23.2h-365.9l-31-48.4c-25.2-38.7-29-77.5-17.4-207.2c25.2-307.8,96.8-528.6,232.3-714.5c153-207.2,493.7-414.4,799.7-486c92.9-21.3,180.1-42.6,193.6-46.5c17.4-3.9,23.2-75.5,23.2-267.2c0-240.1,3.9-263.3,36.8-282.7c56.1-29,627.3-25.2,656.4,3.9c15.5,15.5,23.2,108.4,23.2,288.5v263.3l102.6,13.6c154.9,21.3,433.7,120,584.7,209.1c269.1,158.8,474.4,429.8,542.1,714.5c36.8,160.7,36.8,493.7,0,654.5C6444.9-103.6,6090.5,182.9,5275.4,454c-555.7,183.9-768.7,311.7-855.8,515c-36.8,85.2-42.6,125.9-34.8,257.5c5.8,131.7,19.4,176.2,65.8,263.3c71.6,125.9,197.5,218.8,336.9,247.8c141.3,31,383.3,27.1,497.6-7.7c242-71.6,431.8-373.7,431.8-687.4c0-131.7,13.6-135.5,424-135.5c255.6,0,369.8,7.7,385.3,23.2c36.8,36.8,27.1,296.2-15.5,480.2c-131.7,546-493.7,884.9-1088.2,1014.6l-54.2,11.6l-3.9,335l-5.8,333l-302,5.8C4783.6,3114.3,4752.6,3112.4,4723.6,3079.5z"/></g></g>
</svg>