<?xml version="1.0" encoding="iso-8859-1"?>
<!-- Generator: Adobe Illustrator 19.0.0, SVG Export Plug-In . SVG Version: 6.00 Build 0)  -->
<svg version="1.1" id="Capa_1" xmlns="http://www.w3.org/2000/svg" xmlns:xlink="http://www.w3.org/1999/xlink" x="0px" y="0px"
	 viewBox="0 0 511.968 511.968" style="enable-background:new 0 0 511.968 511.968;" xml:space="preserve">
<path style="fill:#80489E;" d="M255.656,511.968c-16.16,0-32.48-1.504-48.736-4.576C105.608,488.448,24.424,407.904,4.904,306.912
	c-14.88-76.576,4.64-154.464,53.472-213.664C107.272,33.984,179.272,0,255.944,0c141.152,0,256,114.848,256,256
	c0,8.832-7.168,16-16,16s-16-7.168-16-16c0-123.52-100.512-224-224-224c-67.072,0-130.08,29.76-172.864,81.6
	c-42.752,51.808-59.808,120.064-46.784,187.264c17.088,88.16,88,158.528,176.512,175.104
	c58.304,10.816,117.024-0.672,165.472-32.544c13.856-9.088,22.112-24.32,22.176-40.736c0.064-16.32-7.68-30.88-21.248-39.936
	l-20.128-13.44c-7.328-4.896-9.344-14.848-4.448-22.176c4.928-7.36,14.88-9.312,22.176-4.448l20.128,13.44
	c22.336,14.944,35.616,39.872,35.488,66.688c-0.096,27.2-13.792,52.384-36.64,67.36
	C353.992,497.696,305.512,511.968,255.656,511.968z"/>
<path style="fill:#d585ff;" d="M367.944,292.928c-27.616,0-53.952-6.016-78.24-17.888c-3.808-1.824-8.224-2.112-12.256-0.736
	c-4.032,1.408-7.328,4.352-9.184,8.16l-11.52,23.84c-34.56-19.84-63.232-48.544-83.104-83.104l23.872-11.52
	c3.84-1.856,6.752-5.152,8.16-9.184c1.376-4.032,1.12-8.448-0.736-12.256c-11.904-24.256-17.92-50.592-17.92-78.24
	c0-8.832-7.168-16-16-16h-59.072c-8.832,0-16,7.168-16,16c0,149.984,122.016,272,272,272c8.832,0,16-7.168,16-16v-59.072
	C383.944,300.096,376.776,292.928,367.944,292.928z"/>
<g>
</g>
<g>
</g>
<g>
</g>
<g>
</g>
<g>
</g>
<g>
</g>
<g>
</g>
<g>
</g>
<g>
</g>
<g>
</g>
<g>
</g>
<g>
</g>
<g>
</g>
<g>
</g>
<g>
</g>
</svg>
