<?xml version="1.0" encoding="UTF-8"?>
<svg xmlns="http://www.w3.org/2000/svg" xmlns:xlink="http://www.w3.org/1999/xlink" width="30" height="30" viewBox="0 0 60 60" version="1.1"><!-- Generator: Sketch 51.3 (57544) - http://www.bohemiancoding.com/sketch --><title>044 - Layers</title><desc>Created with Sketch.</desc><defs/><g id="Page-1" stroke="none" stroke-width="1" fill="none" fill-rule="evenodd"><g id="044---Layers" transform="translate(-1.000000, 0.000000)" fill-rule="nonzero"><path d="M44.8,34.83 L53.11,39 C53.2791575,39.0847806 53.3859665,39.2577858 53.3859665,39.447 C53.3859665,39.6362142 53.2791575,39.8092194 53.11,39.894 L31.9,50.549 C31.3339049,50.8342572 30.6660951,50.8342572 30.1,50.549 L8.889,39.9 C8.71984255,39.8152194 8.61303348,39.6422142 8.61303348,39.453 C8.61303348,39.2637858 8.71984255,39.0907806 8.889,39.006 L17.189,34.833" id="Shape" fill="#894B9D"/><path d="M53.13,29.675 C53.2969831,29.760548 53.4020197,29.9323785 53.4020197,30.12 C53.4020197,30.3076215 53.2969831,30.479452 53.13,30.565 L44.8,34.83 L31.912,41.43 C31.3393931,41.7233873 30.6606069,41.7233873 30.088,41.43 L23.288,37.947 L21.058,36.807 L17.188,34.827 L8.864,30.572 C8.69803299,30.4870292 8.59313259,30.3167702 8.59187138,30.1303205 C8.59061016,29.9438708 8.69319768,29.7722082 8.858,29.685 C10.271,28.958 13.269,27.425 16.62,25.71 L45.38,25.71 L53.13,29.675 Z" id="Shape" fill="#955BA5"/><path d="M53.106,21.847 L31.894,32.453 C31.3311785,32.7342428 30.6688215,32.7342428 30.106,32.453 L22.18,28.49 L19.92,27.36 L8.894,21.847 C8.72484255,21.7622194 8.61803348,21.5892142 8.61803348,21.4 C8.61803348,21.2107858 8.72484255,21.0377806 8.894,20.953 L30.106,10.347 C30.6688215,10.0657572 31.3311785,10.0657572 31.894,10.347 L53.106,20.953 C53.2751575,21.0377806 53.3819665,21.2107858 53.3819665,21.4 C53.3819665,21.5892142 53.2751575,21.7622194 53.106,21.847 Z" id="Shape" fill="#B49ACA"/><path d="M16.945,22.4 C16.4814133,22.399969 16.0786306,22.0813227 15.97192,21.6301847 C15.8652094,21.1790467 16.0825535,20.7137179 16.497,20.506 L30.553,13.478 C30.872984,13.3149683 31.2558178,13.3360372 31.5559789,13.533198 C31.8561401,13.7303588 32.0275309,14.0733322 32.0050026,14.4317475 C31.9824742,14.7901629 31.7694865,15.108976 31.447,15.267 L17.392,22.3 C17.2526245,22.3671261 17.0996921,22.4013392 16.945,22.4 Z" id="Shape" fill="#3D324C"/><path d="M22.18,28.49 L17.38,30.83 C17.2431578,30.8972443 17.0924643,30.9314929 16.94,30.93 C16.4730914,30.9319273 16.0669936,30.6104916 15.9616542,30.1556169 C15.8563148,29.7007422 16.0797747,29.2335143 16.5,29.03 L19.92,27.36 L22.18,28.49 Z" id="Shape" fill="#3D324C"/><path d="M23.29,37.95 L17.44,40.8 C17.3031578,40.8672443 17.1524643,40.9014929 17,40.9 C16.5330914,40.9019273 16.1269936,40.5804916 16.0216542,40.1256169 C15.9163148,39.6707422 16.1397747,39.2035143 16.56,39 L21.06,36.81 L23.29,37.95 Z" id="Shape" fill="#3D324C"/><path d="M5,20 C4.44771525,20 4,19.5522847 4,19 L4,1 C4,0.44771525 4.44771525,1.01453063e-16 5,0 C5.55228475,-1.01453063e-16 6,0.44771525 6,1 L6,19 C6,19.5522847 5.55228475,20 5,20 Z" id="Shape" fill="#3D324C"/><path d="M5,20 C4.73480519,19.9999434 4.48049273,19.8945494 4.293,19.707 L1.293,16.707 C1.03304342,16.4559255 0.928787403,16.0841221 1.02030284,15.7344927 C1.11181828,15.3848632 1.38486324,15.1118183 1.73449268,15.0203028 C2.08412211,14.9287874 2.45592553,15.0330434 2.707,15.293 L5,17.586 L7.293,15.293 C7.68537889,14.9140278 8.30908478,14.9194476 8.69481858,15.3051814 C9.08055237,15.6909152 9.08597221,16.3146211 8.707,16.707 L5.707,19.707 C5.51950727,19.8945494 5.26519481,19.9999434 5,20 Z" id="Shape" fill="#3D324C"/><path d="M57,60 C56.4477153,60 56,59.5522847 56,59 L56,41 C56,40.4477153 56.4477153,40 57,40 C57.5522847,40 58,40.4477153 58,41 L58,59 C58,59.5522847 57.5522847,60 57,60 Z" id="Shape" fill="#3D324C"/><path d="M60,45 C59.7348052,44.9999434 59.4804927,44.8945494 59.293,44.707 L57,42.414 L54.707,44.707 C54.3146211,45.0859722 53.6909152,45.0805524 53.3051814,44.6948186 C52.9194476,44.3090848 52.9140278,43.6853789 53.293,43.293 L56.293,40.293 C56.6834999,39.9026181 57.3165001,39.9026181 57.707,40.293 L60.707,43.293 C60.9929079,43.5789943 61.0784219,44.0090366 60.923678,44.3826546 C60.7689341,44.7562725 60.4043959,44.9999137 60,45 Z" id="Shape" fill="#3D324C"/></g></g></svg>
