<?xml version="1.0" encoding="UTF-8"?>
<svg xmlns="http://www.w3.org/2000/svg" xmlns:xlink="http://www.w3.org/1999/xlink" width="30" height="30" viewBox="0 0 60 60" version="1.1"><!-- Generator: Sketch 51.3 (57544) - http://www.bohemiancoding.com/sketch --><title>044 - Layers</title><desc>Created with Sketch.</desc><defs/><g id="Page-1" stroke="none" stroke-width="1" fill="none" fill-rule="evenodd"><g id="044---Layers" transform="translate(-1.000000, 0.000000)" fill="#cacaca" fill-rule="nonzero"><path d="M31.456,42.79 C31.1696966,42.9366936 30.8303034,42.9366936 30.544,42.79 L22.1,38.471 L17.447,40.8 C17.127016,40.9630317 16.7441822,40.9419628 16.4440211,40.744802 C16.1438599,40.5476412 15.9724691,40.2046678 15.9949974,39.8462525 C16.0175258,39.4878371 16.2305135,39.169024 16.553,39.011 L19.892,37.344 L17.183,35.958 L10.228,39.458 L31,49.881 L51.771,39.45 L44.806,35.95 L31.456,42.79 Z" id="Shape"/><path d="M31,31.782 L51.764,21.4 L31,11.019 L10.236,21.4 L31,31.782 Z M16.5,20.506 L30.556,13.478 C30.875984,13.3149683 31.2588178,13.3360372 31.5589789,13.533198 C31.8591401,13.7303588 32.0305309,14.0733322 32.0080026,14.4317475 C31.9854742,14.7901629 31.7724865,15.108976 31.45,15.267 L17.392,22.3 C17.2526245,22.3671261 17.0996921,22.4013392 16.945,22.4 C16.4814133,22.399969 16.0786306,22.0813227 15.97192,21.6301847 C15.8652094,21.1790467 16.0825535,20.7137179 16.497,20.506 L16.5,20.506 Z" id="Shape"/><path d="M31.447,33.8 C31.1655892,33.9406214 30.8344108,33.9406214 30.553,33.8 L21,29.018 L17.387,30.824 C17.2486613,30.8937059 17.095908,30.9300105 16.941,30.93 C16.4766209,30.9308998 16.072728,30.6119942 15.9658882,30.1600715 C15.8590485,29.7081489 16.077379,29.2421424 16.493,29.035 L18.763,27.9 L16.625,26.831 L15.23,27.545 C13.26,28.553 11.44,29.484 10.188,30.126 L31,40.777 L51.805,30.12 L45.375,26.831 L31.447,33.8 Z" id="Shape"/><path d="M7.293,15.293 L6,16.586 L6,1 C6,0.44771525 5.55228475,3.38176876e-17 5,0 C4.44771525,-3.38176876e-17 4,0.44771525 4,1 L4,16.586 L2.707,15.293 C2.45592553,15.0330434 2.08412211,14.9287874 1.73449268,15.0203028 C1.38486324,15.1118183 1.11181828,15.3848632 1.02030284,15.7344927 C0.928787403,16.0841221 1.03304342,16.4559255 1.293,16.707 L4.293,19.707 C4.48060853,19.8950834 4.73534548,20.0007876 5.001,20.0007876 C5.26665452,20.0007876 5.52139147,19.8950834 5.709,19.707 L8.709,16.707 C9.08797221,16.3146211 9.08255237,15.6909152 8.69681858,15.3051814 C8.31108478,14.9194476 7.68737889,14.9140278 7.295,15.293 L7.293,15.293 Z" id="Shape"/><path d="M57.708,40.294 C57.5203915,40.1059166 57.2656545,40.0002124 57,40.0002124 C56.7343455,40.0002124 56.4796085,40.1059166 56.292,40.294 L53.292,43.294 C52.9130278,43.6863789 52.9184476,44.3100848 53.3041814,44.6958186 C53.6899152,45.0815524 54.3136211,45.0869722 54.706,44.708 L56,43.414 L56,59 C56,59.5522847 56.4477153,60 57,60 C57.5522847,60 58,59.5522847 58,59 L58,43.414 L59.293,44.707 C59.6853789,45.0859722 60.3090848,45.0805524 60.6948186,44.6948186 C61.0805524,44.3090848 61.0859722,43.6853789 60.707,43.293 L57.708,40.294 Z" id="Shape"/></g></g></svg>
