<svg id="Capa_1" enable-background="new 0 0 512.056 512.056" height="30" viewBox="-150 -200 800 800" width="30" xmlns="http://www.w3.org/2000/svg"><path d="m166.23 20.831c-8.774-8.774-22.999-8.774-31.773 0l-36 35.999c-8.774 8.774-8.774 22.999 0 31.773l327.311 327.311c14.65 14.649 38.401 14.649 53.05 0l14.722-14.722c14.649-14.65 14.649-38.401 0-53.05z" fill="#e1b89a"/><path d="m410.496 400.642c13.85-7.775 26.72-17.497 38.258-29.035 11.709-11.709 21.552-24.785 29.4-38.853l-91.854-91.853c-5.274 9.991-12.061 19.275-20.267 27.481-15.811 15.811-35.427 26.43-56.782 31.016z" fill="#d2996f"/><path d="m286.645 141.246-120.415-120.415c-8.774-8.774-22.999-8.774-31.773 0l-36 35.999c-8.774 8.774-8.774 22.999 0 31.773l120.415 120.415z" fill="#d2996f"/><path d="m307.979 86.742-143.611 143.61c-11.399 11.399-29.879 11.399-41.278 0l-48.866-48.866c-11.398-11.399-11.398-29.879 0-41.278l124.701-124.7c5.128-5.128 12.082-8.008 19.334-8.008h40.43c7.252 0 14.206 2.881 19.334 8.008l29.956 29.955c11.398 11.399 11.398 29.88 0 41.279z" fill="#c6c6c6"/><path d="m169.46 44.974-95.235 95.235c-11.398 11.398-11.398 29.879 0 41.278l48.866 48.866c11.399 11.399 29.879 11.399 41.278 0l48.144-48.144c-34.028-30.056-52.348-84.367-43.053-137.235z" fill="#9aa3b1"/><ellipse cx="153.024" cy="182.84" fill="#fff" rx="28.033" ry="22.324" transform="matrix(.707 -.707 .707 .707 -84.468 161.758)"/><ellipse cx="260.467" cy="75.398" fill="#fff" rx="28.033" ry="22.324" transform="matrix(.707 -.707 .707 .707 22.975 206.262)"/><path d="m177.673 445.392-111.037-111.037c-5.486-5.486-4.883-14.548 1.282-19.259l11.57-8.842c10.271-7.849 24.766-6.884 33.907 2.256l90.123 90.123c9.141 9.141 10.105 23.635 2.256 33.907l-8.841 11.57c-4.712 6.165-13.774 6.768-19.26 1.282z" fill="#e1b89a"/><path d="m33.237 493.513-14.722-14.722c-14.649-14.65-14.649-38.401 0-53.05l69.753-69.753 67.773 67.773-69.753 69.753c-14.65 14.648-38.401 14.648-53.051-.001z" fill="#e1b89a"/><path d="m90.039 355.254h37.625v95.845h-37.625z" fill="#d2996f" transform="matrix(.707 -.707 .707 .707 -253.206 195.057)"/><path d="m128.005 323.121 37.692-37.692c5.744-5.744 15.14-5.741 20.881.006l.107.107c54.264 54.264 142.245 54.264 196.509 0 36.789-36.789 48.63-89.071 35.535-135.84-2.234-7.978 7.594-13.698 13.422-7.81.324.328.647.657.97.989 57.603 59.257 56.91 153.132-1.526 211.567-55.556 55.552-143.693 58.662-202.896 9.329-6.023-5.019-14.852-4.695-20.395.849l-19.397 19.397z" fill="#c6c6c6"/><path d="m277.578 326.04c-33.069-1.743-65.634-15.238-90.894-40.498l-.107-.107c-5.741-5.747-15.137-5.75-20.881-.006l-37.692 37.692 60.902 60.902 19.397-19.397c5.544-5.544 14.372-5.868 20.395-.849 27.287 22.738 60.721 34.326 94.278 34.782-36.467-14.83-48.158-44.409-45.398-72.519z" fill="#9aa3b1"/><path d="m136.526 143.237c-2.929 2.93-2.929 7.678 0 10.607l7 7c1.464 1.464 3.384 2.196 5.303 2.196s3.839-.732 5.303-2.196c2.929-2.93 2.929-7.678 0-10.607l-7-7c-2.928-2.927-7.677-2.927-10.606 0zm44.179-25.92c-4.131-.281-7.713 2.837-7.996 6.969-.284 4.133 2.836 7.713 6.969 7.996.652.045 1.301.066 1.95.066 7.499 0 14.717-2.966 20.05-8.298 5.793-5.794 8.794-13.813 8.232-22-.284-4.133-3.861-7.248-7.996-6.969-4.132.283-7.253 3.863-6.969 7.996.265 3.86-1.147 7.639-3.874 10.365-2.728 2.729-6.515 4.141-10.366 3.875zm318.139 225.521-29.6-29.6c9.091-19.95 13.964-41.728 14.127-64.211.303-41.741-15.633-81.294-44.87-111.37-.34-.351-.682-.698-1.021-1.04-5.055-5.107-12.623-6.114-18.831-2.506-6.212 3.61-9.083 10.689-7.145 17.613 8.964 32.015 5.324 65.745-9.165 94.611l-121.673-121.674 32.615-32.615c7.142-7.143 10.956-16.639 10.737-26.738-.089-4.142-3.544-7.394-7.66-7.336-4.141.089-7.426 3.519-7.336 7.66.129 5.972-2.125 11.585-6.347 15.807l-143.611 143.61c-8.456 8.457-22.215 8.457-30.671 0l-48.865-48.864c-4.096-4.098-6.353-9.544-6.353-15.337s2.256-11.239 6.353-15.335l37.917-37.917c.001 0 .001-.001.002-.001 0-.001.001-.001.001-.002l67.767-67.767c.001-.001.003-.002.004-.004.001-.001.003-.003.004-.004l19.005-19.006c3.747-3.748 8.73-5.812 14.03-5.812h40.431c5.3 0 10.283 2.063 14.03 5.812l20.783 20.783c2.929 2.928 7.678 2.928 10.606 0 2.929-2.93 2.929-7.678 0-10.607l-20.783-20.783c-6.58-6.581-15.329-10.205-24.636-10.205h-40.431c-9.306 0-18.056 3.624-24.637 10.204l-13.706 13.707-8.382-8.383c-11.685-11.684-30.696-11.684-42.379 0l-35.999 36c-5.66 5.66-8.777 13.186-8.777 21.19s3.117 15.529 8.777 21.189l8.383 8.383-32.616 32.616c-6.93 6.93-10.746 16.143-10.746 25.942s3.816 19.013 10.746 25.943l48.865 48.865c7.152 7.151 16.547 10.728 25.942 10.728s18.79-3.576 25.942-10.728l32.616-32.616 112.275 112.275c-42.697 9.807-89.373-1.876-122.562-35.064l-.116-.117c-4.193-4.196-9.784-6.509-15.743-6.511h-.006c-5.957 0-11.548 2.31-15.741 6.503l-32.389 32.388-9.308-9.307c-11.749-11.748-30.563-13.001-43.763-2.911l-11.571 8.841c-4.656 3.559-7.55 8.952-7.939 14.8s1.764 11.578 5.908 15.723l16.329 16.328-64.45 64.45c-17.55 17.55-17.55 46.106 0 63.657l14.723 14.721c8.781 8.781 20.284 13.24 31.835 13.24 10.018 0 20.073-3.357 28.409-10.156 3.21-2.618 3.69-7.342 1.072-10.552-2.619-3.209-7.342-3.689-10.552-1.071-11.961 9.754-29.225 8.866-40.158-2.067l-14.723-14.721c-11.701-11.702-11.701-30.743 0-42.444l64.45-64.45 57.166 57.165-41.886 41.885c-2.929 2.93-2.929 7.678 0 10.608 1.464 1.464 3.384 2.196 5.303 2.196s3.839-.732 5.303-2.196l41.886-41.886 16.328 16.328c3.824 3.825 8.999 5.954 14.371 5.954.449 0 .899-.015 1.35-.045 5.848-.389 11.242-3.283 14.8-7.939l8.842-11.57c10.087-13.201 8.835-32.016-2.913-43.764l-9.307-9.307 14.094-14.093c2.788-2.789 7.212-2.958 10.291-.392 28.442 23.701 64.106 36.547 101.1 36.546 2.272 0 4.556-.049 6.836-.147 20.674-.884 40.705-5.772 59.129-14.22l29.501 29.501c8.775 8.774 20.302 13.162 31.829 13.162 11.526 0 23.053-4.388 31.828-13.162l14.723-14.723c17.553-17.551 17.553-46.107.003-63.658zm-399.467-270.12c0-3.998 1.557-7.757 4.384-10.583l35.999-36c5.835-5.835 15.331-5.836 21.167-.001l8.383 8.383-57.166 57.166-8.382-8.383c-2.828-2.826-4.385-6.585-4.385-10.582zm113.517 119.715 57.166-57.165 124.52 124.519c-4.811 7.287-10.385 14.147-16.689 20.451-13.762 13.762-29.844 23.823-46.996 30.195zm-13.08 235.553-8.842 11.57c-1.276 1.67-2.978 2.02-3.878 2.08-.901.058-2.632-.061-4.118-1.548v-.001l-89.398-89.397c-.002-.002-.004-.005-.006-.007s-.005-.004-.007-.007l-21.625-21.624c-1.487-1.487-1.608-3.22-1.548-4.12s.41-2.602 2.08-3.878l11.571-8.841c3.282-2.509 7.195-3.741 11.094-3.741 4.72 0 9.419 1.807 12.955 5.342l90.123 90.123c6.454 6.456 7.142 16.794 1.599 24.049zm131.38-37.035c-35.674 1.538-70.375-10.172-97.693-32.937-9.078-7.563-22.19-7.002-30.5 1.309l-14.094 14.093-50.295-50.295 32.389-32.389c1.36-1.36 3.183-2.109 5.134-2.109h.002c1.951.001 3.775.751 5.126 2.103l.119.12c40.297 40.297 98.428 52.15 149.224 35.57.495-.111.979-.273 1.448-.486 20.64-6.976 40.024-18.665 56.444-35.085 8.396-8.397 15.62-17.682 21.629-27.602.341-.453.624-.934.85-1.436 20.043-33.958 25.881-75.183 14.976-114.127-.076-.273-.111-.398.238-.602.345-.199.435-.109.634.093.306.309.611.619.919.936 26.475 27.235 40.904 63.037 40.629 100.81-.159 21.895-5.257 43.054-14.74 62.21-.128.229-.244.463-.346.702-6.836 13.62-15.895 26.214-26.995 37.314-25.428 25.426-59.201 40.274-95.098 41.808zm157.044 4.938-14.723 14.723c-11.702 11.704-30.742 11.703-42.444 0l-26.149-26.149c11.563-6.773 22.314-15.051 31.975-24.711 9.866-9.865 18.266-20.803 25.109-32.538l26.232 26.231c11.701 11.702 11.701 30.743 0 42.444zm-267.374-336.99c-2.929 2.929-2.929 7.678-.001 10.606l6.999 7c1.465 1.465 3.384 2.197 5.304 2.197 1.919 0 3.839-.732 5.303-2.196 2.929-2.929 2.929-7.678.001-10.606l-6.999-7c-2.929-2.928-7.678-2.929-10.607-.001z"/></svg>