<svg xmlns="http://www.w3.org/2000/svg" id="Capa_1" enable-background="new 0 0 512.056 512.056" height="30" viewBox="-150 -200 800 800" width="30"><path d="m166.23 20.831c-8.774-8.774-22.999-8.774-31.773 0l-36 35.999c-8.774 8.774-8.774 22.999 0 31.773l327.311 327.311c14.65 14.649 38.401 14.649 53.05 0l14.722-14.722c14.649-14.65 14.649-38.401 0-53.05z" fill="#e2e2e2"/><path d="m410.496 400.642c13.85-7.775 26.72-17.497 38.258-29.035 11.709-11.709 21.552-24.785 29.4-38.853l-91.854-91.853c-5.274 9.991-12.061 19.275-20.267 27.481-15.811 15.811-35.427 26.43-56.782 31.016z" fill="#e2e2e2"/><path d="m286.645 141.246-120.415-120.415c-8.774-8.774-22.999-8.774-31.773 0l-36 35.999c-8.774 8.774-8.774 22.999 0 31.773l120.415 120.415z" fill="#e2e2e2"/><path d="m307.979 86.742-143.611 143.61c-11.399 11.399-29.879 11.399-41.278 0l-48.866-48.866c-11.398-11.399-11.398-29.879 0-41.278l124.701-124.7c5.128-5.128 12.082-8.008 19.334-8.008h40.43c7.252 0 14.206 2.881 19.334 8.008l29.956 29.955c11.398 11.399 11.398 29.88 0 41.279z" fill="#cacaca"/><path d="m169.46 44.974-95.235 95.235c-11.398 11.398-11.398 29.879 0 41.278l48.866 48.866c11.399 11.399 29.879 11.399 41.278 0l48.144-48.144c-34.028-30.056-52.348-84.367-43.053-137.235z" fill="#cacaca"/><path d="m177.673 445.392-111.037-111.037c-5.486-5.486-4.883-14.548 1.282-19.259l11.57-8.842c10.271-7.849 24.766-6.884 33.907 2.256l90.123 90.123c9.141 9.141 10.105 23.635 2.256 33.907l-8.841 11.57c-4.712 6.165-13.774 6.768-19.26 1.282z" fill="#aaaaaa"/><path d="m33.237 493.513-14.722-14.722c-14.649-14.65-14.649-38.401 0-53.05l69.753-69.753 67.773 67.773-69.753 69.753c-14.65 14.648-38.401 14.648-53.051-.001z" fill="#aaaaaa"/><path d="m90.039 355.254h37.625v95.845h-37.625z" fill="#e0e0e0" transform="matrix(.707 -.707 .707 .707 -253.206 195.057)"/><path d="m128.005 323.121 37.692-37.692c5.744-5.744 15.14-5.741 20.881.006l.107.107c54.264 54.264 142.245 54.264 196.509 0 36.789-36.789 48.63-89.071 35.535-135.84-2.234-7.978 7.594-13.698 13.422-7.81.324.328.647.657.97.989 57.603 59.257 56.91 153.132-1.526 211.567-55.556 55.552-143.693 58.662-202.896 9.329-6.023-5.019-14.852-4.695-20.395.849l-19.397 19.397z" fill="#a2a2a2"/><path d="m277.578 326.04c-33.069-1.743-65.634-15.238-90.894-40.498l-.107-.107c-5.741-5.747-15.137-5.75-20.881-.006l-37.692 37.692 60.902 60.902 19.397-19.397c5.544-5.544 14.372-5.868 20.395-.849 27.287 22.738 60.721 34.326 94.278 34.782-36.467-14.83-48.158-44.409-45.398-72.519z" fill="#a2a2a2"/></svg>